# Blender v2.79 (sub 0) OBJ File: 'Flag.blend'
# www.blender.org
o Cube_Cube.001
v -0.625000 0.000000 0.625000
v -0.625000 25.000000 0.625000
v -0.625000 0.000000 -0.625000
v -0.625000 25.000000 -0.625000
v 0.625000 0.000000 0.625000
v 0.625000 25.000000 0.625000
v 0.625000 0.000000 -0.625000
v 0.625000 25.000000 -0.625000
v 0.625000 16.875000 0.312500
v 0.625000 24.375000 0.312500
v 0.625000 16.875000 -0.312500
v 0.625000 24.375000 -0.312500
v 13.125000 16.875000 0.312500
v 13.125000 24.375000 0.312500
v 13.125000 16.875000 -0.312500
v 13.125000 24.375000 -0.312500
vt 0.250000 0.000000
vt 0.250000 1.000000
vt 0.187500 1.000000
vt 0.187500 0.000000
vt 0.125000 1.000000
vt 0.125000 0.000000
vt 0.062500 1.000000
vt 0.062500 0.000000
vt 0.000000 1.000000
vt 0.000000 0.000000
vt 0.250000 0.937500
vt 0.312500 0.937500
vt 0.312500 1.000000
vt 0.250000 1.000000
vt 0.312500 0.937500
vt 0.375000 0.937500
vt 0.375000 1.000000
vt 0.312500 1.000000
vt 0.000000 0.000000
vt 1.000000 0.000000
vt 1.000000 1.000000
vt 0.000000 1.000000
vt 0.906250 0.031250
vt 0.906250 0.406250
vt 0.281250 0.406250
vt 0.281250 0.031250
vt 0.937500 0.468750
vt 0.937500 0.843750
vt 0.906250 0.843750
vt 0.906250 0.468750
vt 0.281250 0.843750
vt 0.281250 0.468750
vt 0.281250 0.437500
vt 0.906250 0.437500
vt 0.906250 0.875000
vt 0.281250 0.875000
vn -1.0000 0.0000 0.0000
vn 0.0000 0.0000 -1.0000
vn 1.0000 0.0000 0.0000
vn 0.0000 0.0000 1.0000
vn 0.0000 -1.0000 0.0000
vn 0.0000 1.0000 0.0000
s off
f 1/1/1 2/2/1 4/3/1 3/4/1
f 3/4/2 4/3/2 8/5/2 7/6/2
f 7/6/3 8/5/3 6/7/3 5/8/3
f 5/8/4 6/7/4 2/9/4 1/10/4
f 3/11/5 7/12/5 5/13/5 1/14/5
f 8/15/6 4/16/6 2/17/6 6/18/6
f 9/19/1 10/20/1 12/21/1 11/22/1
f 11/23/2 12/24/2 16/25/2 15/26/2
f 15/27/3 16/28/3 14/29/3 13/30/3
f 13/30/4 14/29/4 10/31/4 9/32/4
f 11/33/5 15/34/5 13/30/5 9/32/5
f 16/35/6 12/36/6 10/31/6 14/29/6
