# Blender v2.79 (sub 0) OBJ File: 'RocketEnt.blend'
# www.blender.org
mtllib rocket_ent.mtl
o Cube_Cube.001
v 0.250000 -0.250000 0.250000
v 0.250000 0.250000 0.250000
v 0.250000 -0.250000 1.890625
v 0.250000 0.250000 1.890625
v -0.250000 -0.250000 0.250000
v -0.250000 0.250000 0.250000
v -0.250000 -0.250000 1.890625
v -0.250000 0.250000 1.890625
v 0.250000 -0.250000 1.890625
v 0.250000 0.250000 1.890625
v -0.250000 -0.250000 1.890625
v -0.250000 0.250000 1.890625
v 0.170860 0.170859 2.250000
v 0.170860 -0.170859 2.250000
v -0.170859 -0.170859 2.250000
v -0.170859 0.170859 2.250000
v 0.499488 -0.234375 -0.331009
v 0.499488 0.234375 -0.331009
v 0.242973 -0.234375 0.373761
v 0.242973 0.234375 0.373761
v 0.382026 -0.234375 -0.373761
v 0.382026 0.234375 -0.373761
v 0.125511 -0.234375 0.331008
v 0.125511 0.234375 0.331008
v -0.382027 -0.234375 -0.373761
v -0.382027 0.234375 -0.373761
v -0.125512 -0.234375 0.331009
v -0.125512 0.234375 0.331009
v -0.499489 -0.234375 -0.331008
v -0.499489 0.234375 -0.331008
v -0.242973 -0.234375 0.373761
v -0.242973 0.234375 0.373761
v 0.234375 0.382027 -0.373761
v 0.234375 0.499488 -0.331009
v 0.234375 0.125512 0.331008
v 0.234375 0.242973 0.373761
v -0.234375 0.382027 -0.373761
v -0.234375 0.499488 -0.331008
v -0.234375 0.125512 0.331008
v -0.234375 0.242973 0.373761
v 0.234375 -0.499488 -0.331009
v 0.234375 -0.382027 -0.373761
v 0.234375 -0.242973 0.373761
v 0.234375 -0.125512 0.331008
v -0.234375 -0.499488 -0.331008
v -0.234375 -0.382027 -0.373761
v -0.234375 -0.242973 0.373761
v -0.234375 -0.125512 0.331008
v 0.062500 0.250000 1.125000
v 0.062500 0.375000 1.125000
v 0.031250 0.250000 1.875000
v 0.031250 0.312500 1.875000
v -0.062500 0.250000 1.125000
v -0.062500 0.375000 1.125000
v -0.031250 0.250000 1.875000
v -0.031250 0.312500 1.875000
v 0.062500 -0.375000 1.125000
v 0.062500 -0.250000 1.125000
v 0.031250 -0.312500 1.875000
v 0.031250 -0.250000 1.875000
v -0.062500 -0.375000 1.125000
v -0.062500 -0.250000 1.125000
v -0.031250 -0.312500 1.875000
v -0.031250 -0.250000 1.875000
v -0.250000 0.062500 1.125000
v -0.375000 0.062500 1.125000
v -0.250000 0.031250 1.875000
v -0.312500 0.031250 1.875000
v -0.250000 -0.062500 1.125000
v -0.375000 -0.062500 1.125000
v -0.250000 -0.031250 1.875000
v -0.312500 -0.031250 1.875000
v 0.375000 0.062500 1.125000
v 0.250000 0.062500 1.125000
v 0.312500 0.031250 1.875000
v 0.250000 0.031250 1.875000
v 0.375000 -0.062500 1.125000
v 0.250000 -0.062500 1.125000
v 0.312500 -0.031250 1.875000
v 0.250000 -0.031250 1.875000
vn 1.0000 0.0000 -0.0000
vn 0.0000 0.0000 1.0000
vn -1.0000 0.0000 0.0000
vn -0.0000 0.0000 -1.0000
vn 0.0000 -1.0000 0.0000
vn 0.0000 1.0000 0.0000
vn -0.9766 0.0000 0.2151
vn 0.0000 -0.9766 0.2151
vn 0.0000 0.9766 0.2151
vn 0.9766 0.0000 0.2151
vn 0.9397 0.0000 0.3420
vn -0.3420 0.0000 0.9397
vn -0.9397 0.0000 -0.3420
vn 0.3420 0.0000 -0.9397
vn 0.9397 0.0000 -0.3420
vn 0.3420 0.0000 0.9397
vn -0.9397 0.0000 0.3420
vn -0.3420 0.0000 -0.9397
vn 0.0000 -0.3420 0.9397
vn -0.0000 0.3420 -0.9397
vn -0.0000 -0.9397 -0.3420
vn 0.0000 0.9397 0.3420
vn 0.0000 0.3420 0.9397
vn -0.0000 -0.3420 -0.9397
vn 0.0000 -0.9397 0.3420
vn -0.0000 0.9397 -0.3420
vn 0.9991 0.0000 0.0416
vn -0.9991 0.0000 0.0416
vn 0.0000 0.9965 0.0830
vn 0.0000 -0.9965 0.0830
vn 0.0000 0.9991 0.0416
vn 0.0000 -0.9991 0.0416
vn -0.9965 0.0000 0.0830
vn 0.9965 0.0000 0.0830
usemtl None
s off
f 1//1 2//1 4//1 3//1
f 3//2 4//2 8//2 7//2
f 7//3 8//3 6//3 5//3
f 5//4 6//4 2//4 1//4
f 3//5 7//5 5//5 1//5
f 8//6 4//6 2//6 6//6
f 9//4 11//4 12//4 10//4
f 14//2 13//2 16//2 15//2
f 12//7 11//7 15//7 16//7
f 11//8 9//8 14//8 15//8
f 10//9 12//9 16//9 13//9
f 9//10 10//10 13//10 14//10
f 17//11 18//11 20//11 19//11
f 19//12 20//12 24//12 23//12
f 23//13 24//13 22//13 21//13
f 21//14 22//14 18//14 17//14
f 19//5 23//5 21//5 17//5
f 24//6 20//6 18//6 22//6
f 25//15 26//15 28//15 27//15
f 27//16 28//16 32//16 31//16
f 31//17 32//17 30//17 29//17
f 29//18 30//18 26//18 25//18
f 27//5 31//5 29//5 25//5
f 32//6 28//6 26//6 30//6
f 33//1 34//1 36//1 35//1
f 35//19 36//19 40//19 39//19
f 39//3 40//3 38//3 37//3
f 37//20 38//20 34//20 33//20
f 35//21 39//21 37//21 33//21
f 40//22 36//22 34//22 38//22
f 41//1 42//1 44//1 43//1
f 43//23 44//23 48//23 47//23
f 47//3 48//3 46//3 45//3
f 45//24 46//24 42//24 41//24
f 43//25 47//25 45//25 41//25
f 48//26 44//26 42//26 46//26
f 49//27 50//27 52//27 51//27
f 51//2 52//2 56//2 55//2
f 55//28 56//28 54//28 53//28
f 53//4 54//4 50//4 49//4
f 51//5 55//5 53//5 49//5
f 56//29 52//29 50//29 54//29
f 57//27 58//27 60//27 59//27
f 59//2 60//2 64//2 63//2
f 63//28 64//28 62//28 61//28
f 61//4 62//4 58//4 57//4
f 59//30 63//30 61//30 57//30
f 64//6 60//6 58//6 62//6
f 65//31 66//31 68//31 67//31
f 67//2 68//2 72//2 71//2
f 71//32 72//32 70//32 69//32
f 69//4 70//4 66//4 65//4
f 67//1 71//1 69//1 65//1
f 72//33 68//33 66//33 70//33
f 73//31 74//31 76//31 75//31
f 75//2 76//2 80//2 79//2
f 79//32 80//32 78//32 77//32
f 77//4 78//4 74//4 73//4
f 75//34 79//34 77//34 73//34
f 80//3 76//3 74//3 78//3
