# Blender v2.79 (sub 0) OBJ File: 'Tracer.blend'
# www.blender.org
o Railgun_Cube.001
v 0.499968 -0.500000 -64.000000
v 0.499968 0.500000 -64.000000
v 0.500001 -0.500000 -0.000000
v 0.500001 0.500000 -0.000000
v -0.500032 -0.500000 -64.000000
v -0.500032 0.500000 -64.000000
v -0.499999 -0.500000 0.000000
v -0.499999 0.500000 0.000000
vt 2.000000 0.562500
vt 2.000000 0.593750
vt 0.000000 0.593750
vt 0.000000 0.562500
vt 0.000000 0.625000
vt 0.031250 0.593750
vt 0.031250 0.625000
vt 0.000000 0.593750
vt 0.000000 0.562500
vt 2.000000 0.562500
vt 2.000000 0.593750
vt 1.000000 0.593750
vt 1.000000 0.625000
vt 0.968750 0.625000
vt 0.968750 0.593750
vt 2.000000 0.625000
vt 0.000000 0.625000
vt 2.000000 0.625000
vn 1.0000 0.0000 -0.0000
vn 0.0000 0.0000 1.0000
vn -1.0000 0.0000 0.0000
vn 0.0000 0.0000 -1.0000
vn 0.0000 -1.0000 0.0000
vn 0.0000 1.0000 0.0000
s off
f 1/1/1 2/2/1 4/3/1 3/4/1
f 3/5/2 4/3/2 8/6/2 7/7/2
f 7/8/3 8/9/3 6/10/3 5/11/3
f 5/12/4 6/13/4 2/14/4 1/15/4
f 3/5/5 7/8/5 5/11/5 1/16/5
f 8/17/6 4/3/6 2/2/6 6/18/6
