# Blender v2.79 (sub 0) OBJ File: 'Tracer.blend'
# www.blender.org
o Smg_Cube.003
v -0.499998 -0.500000 0.000000
v -0.499998 0.500000 0.000000
v -0.500010 -0.500000 -16.000000
v -0.500010 0.500000 -16.000000
v 0.500002 -0.500000 -0.000000
v 0.500002 0.500000 -0.000000
v 0.499990 -0.500000 -16.000000
v 0.499990 0.500000 -16.000000
vt 0.500000 0.500000
vt 0.500000 0.531250
vt 0.000000 0.531250
vt 0.000000 0.500000
vt 0.000000 0.562500
vt 0.031250 0.531250
vt 0.031250 0.562500
vt 0.000000 0.531250
vt 0.000000 0.500000
vt 0.500000 0.500000
vt 0.500000 0.531250
vt 0.500000 0.562500
vt 0.468750 0.562500
vt 0.468750 0.531250
vt 0.500000 0.562500
vt 0.000000 0.562500
vn -1.0000 0.0000 0.0000
vn 0.0000 0.0000 -1.0000
vn 1.0000 0.0000 -0.0000
vn 0.0000 0.0000 1.0000
vn 0.0000 -1.0000 0.0000
vn 0.0000 1.0000 0.0000
s off
f 1/1/1 2/2/1 4/3/1 3/4/1
f 3/5/2 4/3/2 8/6/2 7/7/2
f 7/8/3 8/9/3 6/10/3 5/11/3
f 5/11/4 6/12/4 2/13/4 1/14/4
f 3/5/5 7/8/5 5/11/5 1/15/5
f 8/16/6 4/3/6 2/2/6 6/12/6
